<svg xmlns="http://www.w3.org/2000/svg" width="81" height="80" viewBox="0 0 81 80">
  <defs>
    <linearGradient id="grad1" x1="0%" y1="0%" x2="100%" y2="100%">
      <stop offset="0%" style="stop-color:#4CAF50;stop-opacity:1" />
      <stop offset="100%" style="stop-color:#81C784;stop-opacity:1" />
    </linearGradient>

  </defs>

  <rect width="80" height="80" fill="url(#grad1)" />

  <g fill="none" fill-rule="evenodd">
    <g fill-rule="nonzero" transform="translate(8 8)">
      <path fill="url(#pluginsdk_80-a)" d="M6.08754566,64 L2.66453526e-15,59.1000946 L0,26.7918961 L30,38.6703369 L10.1403967,64 L6.08754566,64 Z"/>
      <path fill="url(#pluginsdk_80-b)" d="M20.9524706,64 L52.2740919,31.9159091 L37.6708832,0.460194805 L38.0580944,1.33226763e-15 L64,0 L64,64 L20.9524706,64 Z"/>
      <path fill="url(#pluginsdk_80-c)" d="M34.4123783,0 L64,0 L64,28.0366227 L49.0078336,44 L34,0.44696173 L34.4123783,0 Z"/>
      <path fill="url(#pluginsdk_80-d)" d="M30.3358775,64 L0,64 L0,49.9709549 L6.23437817,29.2830519 L0,27.1596093 L0,0 L39.4697238,0 L58,21.3844805 L30.5381317,63.9259091 L30.3358775,64 Z"/>
    </g>
    <g fill-rule="nonzero" transform="translate(8 8)">
      <rect width="65" height="65" fill="#000"/>
      <rect width="40" height="1" x="6" y="40" fill="#FFFEFE"/>
      <text x="30" y="25" font-family="Arial, sans-serif" font-size="35"
            fill="#ffffff" text-anchor="middle" alignment-baseline="middle">FIX</text>
      <text x="32" y="53" font-family="Arial, sans-serif" font-size="18"
            fill="#ffffff" text-anchor="middle" alignment-baseline="middle">Toolset</text>
    </g>
  </g>
</svg>
